<?xml version="1.0" encoding="utf-8"?>
<!-- Generator: Adobe Illustrator 16.0.3, SVG Export Plug-In . SVG Version: 6.00 Build 0)  -->
<!DOCTYPE svg PUBLIC "-//W3C//DTD SVG 1.1//EN" "http://www.w3.org/Graphics/SVG/1.1/DTD/svg11.dtd">
<svg version="1.1" id="Capa_1" xmlns="http://www.w3.org/2000/svg" xmlns:xlink="http://www.w3.org/1999/xlink" x="0px" y="0px"
	 width="1080px" height="1080px" viewBox="0 0 1080 1080" enable-background="new 0 0 1080 1080" xml:space="preserve">
<g>
	<g>
		<path fill-rule="evenodd" clip-rule="evenodd" fill="#FEFEFE" d="M1077.865,1081.843c-360.565,0-721.131,0-1081.781,0
			c0-360.168,0-720.358,0-1080.696c360.537,0,721.159,0,1081.781,0C1077.865,361.328,1077.865,721.574,1077.865,1081.843z
			 M264.867,739.778c0.713-2.208,1.417-4.236,2.026-6.293c8.97-30.275,17.998-60.534,26.791-90.86
			c0.951-3.279,2.37-4.191,5.514-3.984c3.771,0.247,7.571,0.059,11.421,0.059c0-20.516,0-40.543,0-60.956
			c-21.271,0-42.191,0-63.204,0c-4.427-20.975-8.781-41.598-13.211-62.586c-4.342,0.932-8.286,1.778-12.463,2.675
			c4.277,20.295,8.436,40.032,12.609,59.83c-32.078,0-63.449,0-95.156,0c4.249-20.124,8.419-39.883,12.643-59.891
			c-4.37-0.907-8.225-1.707-12.467-2.587c-4.479,21.045-8.897,41.803-13.388,62.904c-21.359,0-42.442,0-63.679,0
			c0,20.318,0,40.215,0,60.525c5.493,0,10.769,0,16.251,0c0.568,1.865,1.052,3.415,1.512,4.971
			c8.958,30.281,17.977,60.544,26.789,90.866c1.121,3.857,2.492,5.476,6.945,5.457c48.637-0.206,97.276-0.129,145.915-0.129
			C261.365,739.778,263.013,739.778,264.867,739.778z M192.259,496.091c0.516-0.592,0.91-0.898,1.117-1.301
			c13.298-25.899,25.329-52.35,34.128-80.15c1.12-3.54,2.979-5.413,6.135-7.064c33.942-17.77,52.286-57.702,44.045-95.517
			c-8.325-38.2-41-66.57-79.392-68.929c-41.124-2.528-78.557,23.819-89.489,62.987c-11.381,40.777,6.586,82.691,43.611,102.21
			c2.015,1.062,3.876,3.538,4.603,5.75C166.313,442.409,178.494,469.475,192.259,496.091z M397.202,552.005
			c1.175,3.748,2.271,7.216,3.35,10.689c3.18,10.234,6.573,12.2,17.181,9.879c1.292-0.283,2.522-0.842,3.811-1.149
			c2.98-0.711,3.848-2.313,3.177-5.414c-6.295-29.075-18.636-55.599-33.989-80.845c-0.632-1.04-2.677-2.021-3.833-1.803
			c-5.337,1.007-10.593,2.448-16.3,3.835c1.246,2.217,2.066,4.033,3.203,5.623c2.445,3.419,1.902,6.206-0.267,9.845
			c-4.575,7.678-8.619,15.713-12.289,23.868c-1.402,3.117-2.905,3.844-5.916,3.365c-4.363-0.694-8.764-1.142-13.454-1.734
			c-0.42,6.776-0.814,13.153-1.206,19.473c4.126,0.551,7.572,1.012,11.059,1.478c-2.083,7.04-4.133,13.969-6.308,21.316
			c8.248,0.885,15.804,1.695,23.459,2.516c1.786-7.221,3.517-14.217,5.18-20.942C382.15,552.005,389.455,552.005,397.202,552.005z
			 M429.833,570.595c1.444,0.229,2.237,0.432,3.037,0.469c8.594,0.399,17.19,0.746,25.782,1.171c2.818,0.139,5.626,0.653,8.44,0.668
			c15.968,0.079,28.377-10.344,29.866-24.973c1.893-18.601-7.083-32.074-24.161-34.852c-6.711-1.092-13.749-0.179-20.444-0.179
			c0-9.712,0-19.254,0-29.203c-9.375,0.737-18.573,1.46-27.89,2.193c-0.593,6.583-1.121,12.455-1.662,18.465
			c3.686,0,6.718,0,9.297,0C431.336,526.644,430.586,548.571,429.833,570.595z M546.451,569.918
			c2.327,3.621,7.114,3.949,20.229,1.603c0-19.806,0-39.524,0-59.25c-9.793-3.455-19.169-3.278-21.932,0.421
			c-17.396-4.396-32.728-0.085-40.404,11.36c-7.003,10.441-6.727,26.602,0.627,36.698
			C513.626,572.632,526.829,575.618,546.451,569.918z M741.176,533.513c-0.419-1.104-0.637-1.905-1.009-2.626
			c-6.405-12.435-16.98-18.507-30.602-18.855c-14.282-0.366-25.673,5.572-32.354,18.47c-7.061,13.631-1.282,31.876,12.349,38.164
			c15.078,6.956,30.671,4.874,46.656,0.974c-1.368-5.308-2.576-9.998-3.819-14.823c-8.287,3.65-15.827,6.77-25.168,3.707
			c6.194-4.56,11.657-8.577,17.116-12.6C729.828,541.884,735.308,537.84,741.176,533.513z M872.033,533.608
			c-0.203-0.907-0.223-1.435-0.433-1.87c-6.077-12.596-16.494-19.001-30.09-19.685c-14.447-0.726-26.106,5.06-33.108,18.033
			c-7.289,13.505-1.848,31.804,11.738,38.35c15.169,7.309,30.931,5.092,47.027,1.218c-1.309-5.26-2.458-9.876-3.696-14.852
			c-8.125,3.515-15.798,6.863-25.276,3.729C849.908,549.904,860.854,541.843,872.033,533.608z M990.073,533.568
			c-4.72-12.74-17.484-21.42-31.232-21.637c-14.953-0.236-28.421,7.858-33.41,20.08c-6.656,16.303,2.172,35.041,19.349,38.798
			c8.598,1.881,17.78,1.434,26.695,1.386c4.465-0.023,8.921-1.512,13.747-2.405c-1.406-5.513-2.578-10.104-3.767-14.758
			c-14.616,5.607-19.152,6.147-24.497,2.922C967.985,549.833,978.941,541.765,990.073,533.568z M572.479,552.453
			c0.508,4.42,0.916,9.017,1.649,13.563c0.173,1.072,1.236,2.397,2.238,2.879c13.295,6.383,26.866,7.262,40.389,0.964
			c6.709-3.124,9.405-8.957,8.536-15.966c-0.821-6.632-4.912-10.906-10.512-13.588c-5.366-2.568-11.21-4.129-16.61-6.633
			c-2.072-0.961-3.502-3.31-5.224-5.026c2.139-1.214,4.411-3.635,6.395-3.419c6.143,0.669,12.175,2.343,18.751,3.732
			c1.094-3.209,2.568-7.535,3.998-11.731c-10.931-7.766-30.357-8.487-41.191-1.791c-10.916,6.748-11.579,20.905-1.121,28.268
			c3.076,2.165,6.696,3.623,10.195,5.104c3.354,1.42,6.984,2.208,10.268,3.754c1.566,0.738,2.607,2.592,3.888,3.94
			c-1.659,1.099-3.199,2.795-5.004,3.148c-2.363,0.463-5.087,0.354-7.386-0.367C585.327,557.275,579.054,554.821,572.479,552.453z
			 M803.21,517.648c-12.484-6.953-26.454-8.581-38.091-4.693c-12.39,4.139-20.604,14.4-21.405,26.738
			c-0.82,12.617,5.223,23.819,15.857,28.712c14.244,6.553,28.677,5.456,43.799,0.661c-1.263-5.972-2.467-11.662-3.456-16.34
			c-7.044,1.142-13.177,2.851-19.338,2.957c-7.95,0.138-13.455-5.407-14.163-12.695c-0.687-7.069,3.686-12.396,11.686-14.415
			c6.998-1.767,13.338,0.36,19.712,3.566c0.953-2.171,1.843-3.942,2.516-5.792C801.343,523.55,802.208,520.699,803.21,517.648z
			 M668.806,553.848c-1.363,0.472-2.124,0.746-2.893,0.999c-8.374,2.755-12.884-0.48-12.776-9.394
			c0.054-4.426,0.545-8.847,0.83-13.146c5.221-0.388,9.938-0.739,15.228-1.133c-0.465-6.608-0.879-12.496-1.306-18.557
			c-4.819,0.533-8.967,0.991-13.737,1.518c0-7.524,0-14.188,0-21.312c-3.24,1.806-5.769,3.424-8.466,4.679
			c-6.973,3.243-13.102,6.96-11.194,16.392c-2.453,0-4.882,0-7.438,0c-0.662,5.264-1.3,10.329-1.963,15.598
			c3.266,0.534,6.104,0.998,9.019,1.476c-0.286,3.639-0.663,6.618-0.725,9.603c-0.106,5.133-0.901,10.46,0.153,15.37
			c3.411,15.874,27.013,22.776,41.822,12.065C673.274,563.501,671.139,558.888,668.806,553.848z M881.99,530.933
			c-0.41,6.51-0.892,12.467-1.139,18.433c-0.396,9.593,3.46,16.934,12.433,20.749c10.104,4.299,20.148,4.162,30.239-1.781
			c-2.373-5.066-4.531-9.671-6.779-14.467c-1.198,0.411-1.946,0.678-2.701,0.926c-8.46,2.773-13.013-0.369-12.938-9.17
			c0.038-4.44,0.541-8.877,0.834-13.31c5.103-0.371,9.841-0.716,15.237-1.108c-0.486-6.603-0.929-12.606-1.371-18.613
			c-4.896,0.566-8.923,1.032-13.552,1.567c0-7.451,0-14.147,0-21.413c-3.973,2.23-7.171,4.336-10.618,5.893
			c-6.376,2.88-10.922,6.642-8.88,14.567c0.045,0.18-0.366,0.478-0.503,0.645c-2.366,0-4.662,0-7.208,0
			c-0.679,5.323-1.339,10.5-1.997,15.67C876.331,530.039,878.933,530.45,881.99,530.933z M1023.041,481.639
			c-9.962,1.144-17.993,2.065-25.8,2.961c2.716,19.965,5.349,39.324,8.032,59.052c2.748,0.193,5.861,0.413,10.065,0.709
			C1017.889,523.593,1020.407,503.083,1023.041,481.639z M1021.109,561.762c-0.079-6.191-5.174-10.849-11.851-10.835
			c-6.626,0.013-11.766,4.767-11.813,10.923c-0.048,6.344,5.298,11.222,12.149,11.083
			C1016.237,572.8,1021.188,567.995,1021.109,561.762z M721.878,489.815c-3.958-4.114-7.625-7.924-11.519-11.972
			c-4.473,6.974-8.785,13.701-13.099,20.429c0.158,0.559,0.317,1.118,0.477,1.678c2.87,0,6.226,0.963,8.511-0.192
			C711.665,497.019,716.575,493.275,721.878,489.815z"/>
		<path fill-rule="evenodd" clip-rule="evenodd" fill="#1B112D" d="M264.867,739.778c-1.854,0-3.502,0-5.151,0
			c-48.638,0-97.277-0.077-145.915,0.129c-4.454,0.019-5.824-1.6-6.945-5.457c-8.812-30.322-17.831-60.585-26.789-90.866
			c-0.46-1.556-0.944-3.105-1.512-4.971c-5.483,0-10.758,0-16.251,0c0-20.311,0-40.207,0-60.525c21.237,0,42.32,0,63.679,0
			c4.491-21.102,8.909-41.859,13.388-62.904c4.242,0.88,8.097,1.681,12.467,2.587c-4.224,20.008-8.395,39.767-12.643,59.891
			c31.707,0,63.078,0,95.156,0c-4.173-19.798-8.332-39.535-12.609-59.83c4.177-0.896,8.121-1.743,12.463-2.675
			c4.431,20.988,8.784,41.611,13.211,62.586c21.013,0,41.933,0,63.204,0c0,20.413,0,40.44,0,60.956c-3.85,0-7.65,0.188-11.421-0.059
			c-3.145-0.207-4.563,0.705-5.514,3.984c-8.793,30.326-17.821,60.585-26.791,90.86C266.283,735.542,265.58,737.57,264.867,739.778z
			 M117.986,726.61c0.862,0.169,1.185,0.288,1.509,0.289c44.154,0.016,88.31-0.034,132.463,0.136
			c3.559,0.014,4.029-1.891,4.742-4.317c7.169-24.405,14.358-48.805,21.542-73.205c1.015-3.45,2.031-6.899,3.141-10.669
			c-63.401,0-126.18,0-189.332,0C100.734,668.229,109.344,697.366,117.986,726.61z M298.399,591.075c-74.621,0-148.853,0-223.175,0
			c0,11.644,0,23.042,0,34.546c74.51,0,148.755,0,223.175,0C298.399,614.08,298.399,602.78,298.399,591.075z"/>
		<path fill-rule="evenodd" clip-rule="evenodd" fill="#190F2B" d="M192.259,496.091c-13.765-26.616-25.946-53.682-35.243-82.014
			c-0.727-2.213-2.588-4.688-4.603-5.75c-37.024-19.519-54.992-61.433-43.611-102.21c10.933-39.168,48.365-65.515,89.489-62.987
			c38.392,2.359,71.067,30.729,79.392,68.929c8.241,37.815-10.103,77.747-44.045,95.517c-3.156,1.652-5.015,3.524-6.135,7.064
			c-8.799,27.8-20.831,54.251-34.128,80.15C193.169,495.192,192.775,495.499,192.259,496.091z M191.297,451.2
			c0.77,0.027,1.538,0.055,2.308,0.082c5.717-15.912,11.812-31.703,16.941-47.803c1.744-5.474,4.403-8.324,9.444-10.771
			c25.024-12.148,38.993-32.239,40.077-60.187c1.519-39.162-31.351-72.027-69.565-70.275c-40.574,1.859-70.741,37.238-65.179,77.176
			c3.439,24.695,16.947,42.654,39.554,53.243c5.295,2.48,7.845,5.614,9.622,11.204C179.57,419.814,185.627,435.445,191.297,451.2z"
			/>
		<path fill-rule="evenodd" clip-rule="evenodd" fill="#190F2A" d="M397.202,552.005c-7.747,0-15.052,0-23.141,0
			c-1.663,6.726-3.394,13.722-5.18,20.942c-7.656-0.82-15.211-1.631-23.459-2.516c2.174-7.348,4.224-14.276,6.308-21.316
			c-3.487-0.466-6.933-0.927-11.059-1.478c0.392-6.32,0.786-12.697,1.206-19.473c4.69,0.592,9.091,1.04,13.454,1.734
			c3.011,0.479,4.514-0.248,5.916-3.365c3.67-8.155,7.713-16.19,12.289-23.868c2.168-3.639,2.712-6.426,0.267-9.845
			c-1.137-1.59-1.957-3.406-3.203-5.623c5.708-1.388,10.963-2.829,16.3-3.835c1.155-0.218,3.201,0.763,3.833,1.803
			c15.353,25.246,27.694,51.77,33.989,80.845c0.671,3.102-0.197,4.703-3.177,5.414c-1.289,0.308-2.519,0.866-3.811,1.149
			c-10.607,2.321-14,0.355-17.181-9.879C399.472,559.221,398.376,555.753,397.202,552.005z M384.675,514.627
			c-2.376,6.975-4.23,12.416-6.325,18.565c4.968-0.376,8.669-0.656,13.1-0.991C389.189,526.336,387.214,521.211,384.675,514.627z"/>
		<path fill-rule="evenodd" clip-rule="evenodd" fill="#190F2B" d="M429.833,570.595c0.753-22.023,1.502-43.951,2.265-66.241
			c-2.579,0-5.611,0-9.297,0c0.541-6.01,1.069-11.882,1.662-18.465c9.317-0.732,18.516-1.456,27.89-2.193c0,9.949,0,19.491,0,29.203
			c6.695,0,13.733-0.913,20.444,0.179c17.078,2.777,26.054,16.251,24.161,34.852c-1.488,14.629-13.898,25.052-29.866,24.973
			c-2.814-0.015-5.622-0.529-8.44-0.668c-8.592-0.425-17.188-0.771-25.782-1.171C432.07,571.026,431.278,570.823,429.833,570.595z
			 M459.483,528.965c-7.919,0.009-8.396,0.457-8.624,8.339c-0.072,2.49-0.105,4.983-0.074,7.473
			c0.098,7.759,0.345,8.033,8.182,8.979c1.313,0.159,2.657,0.177,3.98,0.116c8.031-0.37,12.457-5.584,11.537-13.542
			C473.646,533.081,468.201,528.955,459.483,528.965z"/>
		<path fill-rule="evenodd" clip-rule="evenodd" fill="#190F2A" d="M546.451,569.918c-19.623,5.7-32.825,2.714-41.479-9.168
			c-7.354-10.096-7.63-26.256-0.627-36.698c7.676-11.445,23.008-15.756,40.404-11.36c2.763-3.699,12.139-3.875,21.932-0.421
			c0,19.725,0,39.444,0,59.25C553.565,573.867,548.778,573.539,546.451,569.918z M545.56,553.494c0-6.717-0.006-12.645,0.002-18.573
			c0.008-6.966,0.014-6.975-6.893-7.811c-0.984-0.119-1.985-0.143-2.978-0.141c-9.505,0.02-15.468,6.465-14.762,15.937
			c0.673,9.02,7.779,14.42,17.039,12.756C540.703,555.171,543.343,554.142,545.56,553.494z"/>
		<path fill-rule="evenodd" clip-rule="evenodd" fill="#190F2B" d="M741.176,533.513c-5.868,4.327-11.348,8.371-16.83,12.41
			c-5.459,4.022-10.922,8.04-17.116,12.6c9.341,3.063,16.881-0.057,25.168-3.707c1.243,4.825,2.451,9.516,3.819,14.823
			c-15.985,3.9-31.578,5.982-46.656-0.974c-13.631-6.288-19.409-24.533-12.349-38.164c6.681-12.898,18.071-18.836,32.354-18.47
			c13.621,0.349,24.196,6.42,30.602,18.855C740.539,531.608,740.757,532.409,741.176,533.513z M696.874,546.674
			c6.617-4.776,12.935-9.322,19.231-13.895c0.927-0.673,1.763-1.472,2.654-2.224c-5.624-5.377-12.225-5.974-18.121-2.042
			C695.928,531.654,692.61,539.927,696.874,546.674z"/>
		<path fill-rule="evenodd" clip-rule="evenodd" fill="#190F2B" d="M872.033,533.608c-11.18,8.234-22.125,16.296-33.838,24.924
			c9.479,3.134,17.151-0.215,25.276-3.729c1.238,4.976,2.388,9.592,3.696,14.852c-16.097,3.874-31.858,6.091-47.027-1.218
			c-13.586-6.546-19.027-24.845-11.738-38.35c7.002-12.973,18.661-18.759,33.108-18.033c13.596,0.683,24.013,7.089,30.09,19.685
			C871.811,532.174,871.83,532.701,872.033,533.608z M849.892,530.726c-5.956-5.765-13.233-6.281-19.035-1.599
			c-5.352,4.319-6.57,11.507-2.694,17.359C835.396,541.24,842.616,536.003,849.892,530.726z"/>
		<path fill-rule="evenodd" clip-rule="evenodd" fill="#190F2B" d="M990.073,533.568c-11.132,8.197-22.088,16.265-33.115,24.385
			c5.345,3.226,9.881,2.686,24.497-2.922c1.188,4.654,2.36,9.245,3.767,14.758c-4.826,0.894-9.282,2.382-13.747,2.405
			c-8.915,0.048-18.098,0.495-26.695-1.386c-17.177-3.758-26.005-22.495-19.349-38.798c4.989-12.222,18.457-20.315,33.41-20.08
			C972.589,512.148,985.354,520.828,990.073,533.568z M967.968,530.637c-6.585-5.778-13.735-6.09-19.403-1.284
			c-5.082,4.311-6.169,10.952-2.638,17.006c0.692-0.402,1.425-0.75,2.07-1.218C954.575,540.381,961.141,535.601,967.968,530.637z"/>
		<path fill-rule="evenodd" clip-rule="evenodd" fill="#1A102B" d="M572.479,552.453c6.574,2.368,12.848,4.822,19.259,6.832
			c2.299,0.721,5.022,0.83,7.386,0.367c1.805-0.354,3.345-2.05,5.004-3.148c-1.28-1.349-2.321-3.202-3.888-3.94
			c-3.283-1.546-6.914-2.334-10.268-3.754c-3.499-1.481-7.119-2.939-10.195-5.104c-10.458-7.362-9.795-21.52,1.121-28.268
			c10.834-6.697,30.261-5.975,41.191,1.791c-1.43,4.196-2.904,8.522-3.998,11.731c-6.576-1.39-12.608-3.063-18.751-3.732
			c-1.983-0.216-4.256,2.205-6.395,3.419c1.722,1.716,3.151,4.064,5.224,5.026c5.4,2.504,11.244,4.065,16.61,6.633
			c5.6,2.682,9.69,6.956,10.512,13.588c0.869,7.009-1.827,12.842-8.536,15.966c-13.522,6.298-27.094,5.419-40.389-0.964
			c-1.002-0.481-2.065-1.807-2.238-2.879C573.396,561.47,572.987,556.873,572.479,552.453z"/>
		<path fill-rule="evenodd" clip-rule="evenodd" fill="#190F2B" d="M803.21,517.648c-1.002,3.051-1.867,5.902-2.884,8.698
			c-0.673,1.85-1.563,3.621-2.516,5.792c-6.374-3.206-12.714-5.333-19.712-3.566c-8,2.019-12.372,7.346-11.686,14.415
			c0.708,7.288,6.213,12.833,14.163,12.695c6.161-0.106,12.294-1.815,19.338-2.957c0.989,4.678,2.193,10.368,3.456,16.34
			c-15.122,4.795-29.555,5.892-43.799-0.661c-10.635-4.893-16.678-16.095-15.857-28.712c0.802-12.338,9.016-22.599,21.405-26.738
			C776.756,509.067,790.726,510.695,803.21,517.648z"/>
		<path fill-rule="evenodd" clip-rule="evenodd" fill="#1A102B" d="M668.806,553.848c2.333,5.04,4.469,9.653,6.554,14.158
			c-14.81,10.711-38.411,3.809-41.822-12.065c-1.055-4.91-0.26-10.237-0.153-15.37c0.062-2.985,0.438-5.963,0.725-9.603
			c-2.915-0.478-5.753-0.941-9.019-1.476c0.663-5.27,1.301-10.334,1.963-15.598c2.557,0,4.985,0,7.438,0
			c-1.907-9.432,4.222-13.149,11.194-16.392c2.697-1.254,5.226-2.873,8.466-4.679c0,7.123,0,13.788,0,21.312
			c4.771-0.527,8.918-0.985,13.737-1.518c0.427,6.061,0.841,11.949,1.306,18.557c-5.29,0.394-10.007,0.745-15.228,1.133
			c-0.285,4.299-0.776,8.721-0.83,13.146c-0.107,8.913,4.402,12.148,12.776,9.394C666.682,554.594,667.442,554.319,668.806,553.848z
			"/>
		<path fill-rule="evenodd" clip-rule="evenodd" fill="#1A102B" d="M881.99,530.933c-3.058-0.483-5.659-0.894-8.942-1.412
			c0.658-5.169,1.318-10.347,1.997-15.67c2.546,0,4.842,0,7.208,0c0.137-0.167,0.548-0.465,0.503-0.645
			c-2.042-7.925,2.504-11.687,8.88-14.567c3.447-1.557,6.646-3.663,10.618-5.893c0,7.266,0,13.961,0,21.413
			c4.629-0.535,8.655-1,13.552-1.567c0.442,6.007,0.885,12.01,1.371,18.613c-5.396,0.393-10.135,0.737-15.237,1.108
			c-0.293,4.433-0.796,8.87-0.834,13.31c-0.075,8.801,4.478,11.943,12.938,9.17c0.755-0.248,1.503-0.515,2.701-0.926
			c2.248,4.796,4.406,9.4,6.779,14.467c-10.091,5.943-20.135,6.08-30.239,1.781c-8.973-3.815-12.829-11.156-12.433-20.749
			C881.099,543.4,881.58,537.443,881.99,530.933z"/>
		<path fill-rule="evenodd" clip-rule="evenodd" fill="#1A102C" d="M1023.041,481.639c-2.634,21.444-5.152,41.954-7.702,62.723
			c-4.204-0.296-7.317-0.516-10.065-0.709c-2.684-19.728-5.316-39.087-8.032-59.052
			C1005.048,483.704,1013.079,482.783,1023.041,481.639z"/>
		<path fill-rule="evenodd" clip-rule="evenodd" fill="#190F2B" d="M1021.109,561.762c0.079,6.233-4.872,11.038-11.514,11.171
			c-6.852,0.139-12.197-4.739-12.149-11.083c0.047-6.156,5.187-10.91,11.813-10.923
			C1015.936,550.913,1021.03,555.57,1021.109,561.762z"/>
		<path fill-rule="evenodd" clip-rule="evenodd" fill="#1C122D" d="M721.878,489.815c-5.303,3.46-10.213,7.204-15.63,9.942
			c-2.285,1.155-5.641,0.192-8.511,0.192c-0.159-0.56-0.318-1.119-0.477-1.678c4.313-6.728,8.626-13.455,13.099-20.429
			C714.253,481.891,717.92,485.701,721.878,489.815z"/>
		<path fill-rule="evenodd" clip-rule="evenodd" fill="#FEFEFE" d="M117.986,726.61c-8.642-29.244-17.252-58.382-25.935-87.767
			c63.151,0,125.93,0,189.332,0c-1.11,3.77-2.125,7.219-3.141,10.669c-7.184,24.4-14.373,48.8-21.542,73.205
			c-0.713,2.427-1.184,4.331-4.742,4.317c-44.153-0.17-88.309-0.12-132.463-0.136C119.171,726.898,118.848,726.779,117.986,726.61z"
			/>
		<path fill-rule="evenodd" clip-rule="evenodd" fill="#FDFDFD" d="M298.399,591.075c0,11.705,0,23.005,0,34.546
			c-74.42,0-148.665,0-223.175,0c0-11.504,0-22.902,0-34.546C149.547,591.075,223.778,591.075,298.399,591.075z"/>
		<path fill-rule="evenodd" clip-rule="evenodd" fill="#FCFCFC" d="M191.297,451.2c-5.67-15.754-11.727-31.386-16.799-47.331
			c-1.777-5.59-4.327-8.724-9.622-11.204c-22.607-10.589-36.115-28.548-39.554-53.243c-5.562-39.938,24.605-75.317,65.179-77.176
			c38.215-1.751,71.084,31.114,69.565,70.275c-1.084,27.948-15.053,48.039-40.077,60.187c-5.041,2.447-7.7,5.297-9.444,10.771
			c-5.129,16.1-11.224,31.891-16.941,47.803C192.835,451.254,192.067,451.227,191.297,451.2z M221.362,330.296
			c-0.112-16.006-12.988-28.863-28.885-28.843c-16.144,0.021-28.993,13.058-28.903,29.326c0.088,15.951,13.025,28.894,28.883,28.896
			C208.497,359.68,221.475,346.487,221.362,330.296z"/>
		<path fill-rule="evenodd" clip-rule="evenodd" fill="#F2F2F3" d="M384.675,514.627c2.539,6.584,4.514,11.709,6.775,17.574
			c-4.431,0.335-8.132,0.615-13.1,0.991C380.445,527.043,382.299,521.602,384.675,514.627z"/>
		<path fill-rule="evenodd" clip-rule="evenodd" fill="#FAF9FA" d="M459.483,528.965c8.718-0.011,14.164,4.116,15.001,11.366
			c0.919,7.958-3.506,13.172-11.537,13.542c-1.323,0.061-2.667,0.043-3.98-0.116c-7.837-0.946-8.084-1.221-8.182-8.979
			c-0.031-2.489,0.002-4.983,0.074-7.473C451.087,529.422,451.563,528.975,459.483,528.965z"/>
		<path fill-rule="evenodd" clip-rule="evenodd" fill="#F8F8F9" d="M545.56,553.494c-2.217,0.647-4.856,1.677-7.592,2.168
			c-9.259,1.664-16.365-3.736-17.039-12.756c-0.706-9.472,5.257-15.917,14.762-15.937c0.993-0.002,1.994,0.021,2.978,0.141
			c6.907,0.836,6.901,0.845,6.893,7.811C545.554,540.85,545.56,546.777,545.56,553.494z"/>
		<path fill-rule="evenodd" clip-rule="evenodd" fill="#F8F7F8" d="M696.874,546.674c-4.264-6.747-0.946-15.02,3.765-18.161
			c5.896-3.932,12.497-3.335,18.121,2.042c-0.892,0.752-1.728,1.551-2.654,2.224C709.809,537.352,703.491,541.897,696.874,546.674z"
			/>
		<path fill-rule="evenodd" clip-rule="evenodd" fill="#F8F7F8" d="M849.892,530.726c-7.275,5.277-14.496,10.514-21.729,15.76
			c-3.876-5.853-2.657-13.041,2.694-17.359C836.658,524.445,843.936,524.961,849.892,530.726z"/>
		<path fill-rule="evenodd" clip-rule="evenodd" fill="#F8F7F8" d="M967.968,530.637c-6.827,4.964-13.393,9.744-19.971,14.504
			c-0.646,0.468-1.378,0.815-2.07,1.218c-3.531-6.054-2.444-12.695,2.638-17.006C954.232,524.547,961.383,524.859,967.968,530.637z"
			/>
		<path fill-rule="evenodd" clip-rule="evenodd" fill="#180E2A" d="M221.362,330.296c0.113,16.191-12.866,29.383-28.905,29.38
			c-15.857-0.003-28.794-12.946-28.883-28.896c-0.09-16.268,12.759-29.306,28.903-29.326
			C208.375,301.433,221.25,314.291,221.362,330.296z"/>
	</g>
</g>
</svg>
