<svg xmlns="http://www.w3.org/2000/svg" data-name="Layer 1" viewBox="0 0 128 160" x="0px" y="0px"><title>Artboard 44</title><path fill="#160c28" d="M64,0A52,52,0,0,0,46,100.8l14.68,25.27a4,4,0,0,0,6.64,0L82,100.8A52,52,0,0,0,64,0ZM99.75,45.4l-12,32A4,4,0,0,1,84,80H44a4,4,0,0,1-3.75-2.6l-12-32A4,4,0,0,1,32,40H57L44.72,22.28a4,4,0,1,1,6.57-4.57L64,36,76.72,17.72a4,4,0,1,1,6.57,4.57L71,40H96a4,4,0,0,1,3.75,5.4Z"/><path fill="#160c28" d="M46.77,72H81.23l9-24H37.77ZM68,56a4,4,0,0,1,8,0v8a4,4,0,0,1-8,0ZM52,56a4,4,0,0,1,8,0v8a4,4,0,0,1-8,0Z"/></svg>